<svg viewBox="0 0 973.15 107" xmlns="http://www.w3.org/2000/svg"><g class="layer"><g class="layer" fill="#82ba3b"><path d="M686.37.56H557.59V13.8h128.78V.56zm0 46.32H557.59v13.24h128.78V46.88zm0 46.32H557.59v13.24h128.78V93.2zM160.18 13.8h100.16v33.08H160.18V13.8zm146.94 92.64H421.6V.56H292.81v105.88h14.31zM407.29 93.2H307.12V13.8h100.17v79.4zm494.32 13.24h14.3V60.12h57.24V46.88h-57.24V.56h-14.3v46.32h-57.24v13.24h57.24v46.32zM145.87.56v105.88h14.31V60.12h114.47V.56H145.87zM14.32 13.8h100.16v33.08H14.32V13.8zM114.48.56H0v105.88h14.32V60.12h114.47V.56h-14.31z"/><path d="M221.71 53.5h-13.97v6.62h.35l46.07 46.07.25.25h20.24l-.2-.2-52.74-52.74zM764.78 93.2h-46.15V13.8H833.1V.56H704.32v105.88H833.1V93.2h-68.32zM528.43.56v91.57h-92.64v14.31h105.88V.56h-13.24z"/></g></g></svg>