<svg width="512" height="512" viewBox="0 0 512 512" fill="none" xmlns="http://www.w3.org/2000/svg">
<path d="M477 45.3997C443 57.8997 23.5 219 17.3 222C-3.2 231.7 -5.6 244.5 11.5 253.2C13.2 254.1 41.5 263.1 74.6 273.4L134.7 292.1L271.1 206.7C346.2 159.8 409.1 120.8 410.9 120.2C415.6 118.6 419.6 118.7 421.4 120.6C422.7 121.9 422.8 122.5 421.7 124.4C421.1 125.7 371.2 171 311 225C250.8 279.1 201.3 323.7 201.1 324.2C200.9 324.7 198.9 351.7 196.6 384.2L192.4 443.2L197 442.6C199.5 442.3 203.4 441 205.7 439.7C208.1 438.5 223.7 424.3 240.6 408.2C257.4 392.1 271.8 378.6 272.5 378.4C273.2 378.1 300 397.1 332.1 420.6C364.1 444.1 392.8 464.4 395.9 465.8C404 469.6 413 469.9 418.9 466.8C424.2 464 429.3 457 431.5 449.7C432.3 446.9 450.7 362.2 472.2 261.5C508.1 93.8997 511.4 77.6997 511.4 68.9997C511.4 60.7997 511.1 58.7997 508.9 54.4997C507.4 51.3997 504.7 48.2997 502.1 46.4997C496.2 42.3997 486.4 41.8997 477 45.3997Z" fill="#544D4D"/>
</svg>
